<svg width="24" height="24" viewBox="0 0 24 24" fill="none" xmlns="http://www.w3.org/2000/svg">
<path d="M10 18H7V8H10V18ZM21 18H18V12.658C18 11.266 17.504 10.573 16.521 10.573C15.742 10.573 15.248 10.961 15 11.738V18H12C12 18 12.04 9 12 8H14.368L14.551 10H14.613C15.228 9 16.211 8.322 17.559 8.322C18.584 8.322 19.413 8.607 20.046 9.323C20.683 10.04 21 11.002 21 12.353V18Z" fill="black" />
<path d="M8.5002 7C9.35624 7 10.0502 6.32843 10.0502 5.5C10.0502 4.67157 9.35624 4 8.5002 4C7.64415 4 6.9502 4.67157 6.9502 5.5C6.9502 6.32843 7.64415 7 8.5002 7Z" fill="black"/>
</svg>
